{
  "accessors": [
    {
      "bufferView": 2,
      "componentType": 5126,
      "count": 944,
      "max": [
        -853.0662231445313,
        20.000017166137695,
        -532.40625
      ],
      "min": [
        -939.9612426757813,
        7.500003814697266,
        -619.30126953125
      ],
      "type": "VEC3"
    },
    {
      "bufferView": 2,
      "byteOffset": 11328,
      "componentType": 5126,
      "count": 944,
      "max": [
        0.9974678754806519,
        1.0,
        0.9974932670593262
      ],
      "min": [
        -0.9966521263122559,
        -1.0,
        -0.9974935054779053
      ],
      "type": "VEC3"
    },
    {
      "bufferView": 1,
      "componentType": 5126,
      "count": 944,
      "max": [
        0.9956049919128418,
        0.5419520139694214
      ],
      "min": [
        0.5980920195579529,
        0.005911000072956085
      ],
      "type": "VEC2"
    },
    {
      "bufferView": 0,
      "componentType": 5125,
      "count": 4848,
      "type": "SCALAR"
    },
    {
      "bufferView": 2,
      "byteOffset": 22656,
      "componentType": 5126,
      "count": 1694,
      "max": [
        -866.916259765625,
        23.750015258789063,
        -552.0912475585938
      ],
      "min": [
        -926.1112670898438,
        13.750005722045898,
        -599.3262329101563
      ],
      "type": "VEC3"
    },
    {
      "bufferView": 2,
      "byteOffset": 42984,
      "componentType": 5126,
      "count": 1694,
      "max": [
        0.9931984543800354,
        1.0,
        0.9999998807907104
      ],
      "min": [
        -0.9926649928092957,
        -1.0,
        -1.0
      ],
      "type": "VEC3"
    },
    {
      "bufferView": 1,
      "byteOffset": 7552,
      "componentType": 5126,
      "count": 1694,
      "max": [
        0.9960529804229736,
        0.4225820004940033
      ],
      "min": [
        0.6590759754180908,
        0.0039470000192523
      ],
      "type": "VEC2"
    },
    {
      "bufferView": 0,
      "byteOffset": 19392,
      "componentType": 5125,
      "count": 8202,
      "type": "SCALAR"
    },
    {
      "bufferView": 2,
      "byteOffset": 63312,
      "componentType": 5126,
      "count": 4051,
      "max": [
        -904.2887573242188,
        2.5000100135803223,
        -467.1237487792969
      ],
      "min": [
        -1060.981201171875,
        -22.500019073486328,
        -583.3462524414063
      ],
      "type": "VEC3"
    },
    {
      "bufferView": 2,
      "byteOffset": 111924,
      "componentType": 5126,
      "count": 4051,
      "max": [
        1.0,
        1.0,
        1.0
      ],
      "min": [
        -1.0,
        -1.0,
        -1.0
      ],
      "type": "VEC3"
    },
    {
      "bufferView": 1,
      "byteOffset": 21104,
      "componentType": 5126,
      "count": 4051,
      "max": [
        0.7590330243110657,
        0.967104971408844
      ],
      "min": [
        0.029293999075889587,
        0.22866900265216827
      ],
      "type": "VEC2"
    },
    {
      "bufferView": 0,
      "byteOffset": 52200,
      "componentType": 5125,
      "count": 22146,
      "type": "SCALAR"
    },
    {
      "bufferView": 2,
      "byteOffset": 160536,
      "componentType": 5126,
      "count": 6076,
      "max": [
        -898.3362426757813,
        1.2500089406967163,
        -460.69873046875
      ],
      "min": [
        -1066.9337158203125,
        -23.75002098083496,
        -618.7437744140625
      ],
      "type": "VEC3"
    },
    {
      "bufferView": 2,
      "byteOffset": 233448,
      "componentType": 5126,
      "count": 6076,
      "max": [
        1.0,
        1.0,
        1.0
      ],
      "min": [
        -1.0,
        -1.0,
        -1.0
      ],
      "type": "VEC3"
    },
    {
      "bufferView": 1,
      "byteOffset": 53512,
      "componentType": 5126,
      "count": 6076,
      "max": [
        0.7839429974555969,
        0.9940890073776245
      ],
      "min": [
        0.004383999854326248,
        0.00646300008520484
      ],
      "type": "VEC2"
    },
    {
      "bufferView": 0,
      "byteOffset": 140784,
      "componentType": 5125,
      "count": 32802,
      "type": "SCALAR"
    }
  ],
  "asset": {
    "extras": {
      "author": "Icons myBCA (https://sketchfab.com/iconmyba)",
      "license": "CC-BY-4.0 (http://creativecommons.org/licenses/by/4.0/)",
      "source": "https://sketchfab.com/3d-models/internet-tv-kabel-bf2bae7b069047ad8faecf6c5a6f47b4",
      "title": "Internet TV Kabel"
    },
    "generator": "Sketchfab-16.7.0",
    "version": "2.0"
  },
  "bufferViews": [
    {
      "buffer": 0,
      "byteLength": 271992,
      "name": "floatBufferViews",
      "target": 34963
    },
    {
      "buffer": 0,
      "byteLength": 102120,
      "byteOffset": 271992,
      "byteStride": 8,
      "name": "floatBufferViews",
      "target": 34962
    },
    {
      "buffer": 0,
      "byteLength": 306360,
      "byteOffset": 374112,
      "byteStride": 12,
      "name": "floatBufferViews",
      "target": 34962
    }
  ],
  "buffers": [
    {
      "byteLength": 680472,
      "uri": "scene.bin"
    }
  ],
  "images": [
    {
      "uri": "textures/White_1_baseColor.jpeg"
    }
  ],
  "materials": [
    {
      "doubleSided": true,
      "name": "01___Default",
      "pbrMetallicRoughness": {
        "baseColorFactor": [
          0.0,
          0.1070231029782675,
          0.4019777798321956,
          1.0
        ],
        "metallicFactor": 0.0,
        "roughnessFactor": 0.0
      }
    },
    {
      "doubleSided": true,
      "name": "02___Default",
      "pbrMetallicRoughness": {
        "baseColorFactor": [
          0.0,
          0.4620769996544071,
          0.8713671191987973,
          1.0
        ],
        "metallicFactor": 0.0,
        "roughnessFactor": 0.0
      }
    },
    {
      "doubleSided": true,
      "name": "White",
      "pbrMetallicRoughness": {
        "metallicFactor": 0.0,
        "roughnessFactor": 0.0
      }
    },
    {
      "doubleSided": true,
      "name": "White_1",
      "pbrMetallicRoughness": {
        "baseColorTexture": {
          "index": 0
        },
        "metallicFactor": 0.0,
        "roughnessFactor": 0.0
      }
    }
  ],
  "meshes": [
    {
      "name": "Object_0",
      "primitives": [
        {
          "attributes": {
            "NORMAL": 1,
            "POSITION": 0,
            "TEXCOORD_0": 2
          },
          "indices": 3,
          "material": 1,
          "mode": 4
        }
      ]
    },
    {
      "name": "Object_1",
      "primitives": [
        {
          "attributes": {
            "NORMAL": 5,
            "POSITION": 4,
            "TEXCOORD_0": 6
          },
          "indices": 7,
          "material": 2,
          "mode": 4
        }
      ]
    },
    {
      "name": "Object_2",
      "primitives": [
        {
          "attributes": {
            "NORMAL": 9,
            "POSITION": 8,
            "TEXCOORD_0": 10
          },
          "indices": 11,
          "material": 3,
          "mode": 4
        }
      ]
    },
    {
      "name": "Object_3",
      "primitives": [
        {
          "attributes": {
            "NORMAL": 13,
            "POSITION": 12,
            "TEXCOORD_0": 14
          },
          "indices": 15,
          "material": 0,
          "mode": 4
        }
      ]
    }
  ],
  "nodes": [
    {
      "children": [
        1
      ],
      "matrix": [
        1.0,
        0.0,
        0.0,
        0.0,
        0.0,
        2.220446049250313e-16,
        -1.0,
        0.0,
        0.0,
        1.0,
        2.220446049250313e-16,
        0.0,
        0.0,
        0.0,
        0.0,
        1.0
      ],
      "name": "Sketchfab_model"
    },
    {
      "children": [
        2,
        3,
        4,
        5
      ],
      "name": "Internet TV Kabel.obj.cleaner.materialmerger.gles"
    },
    {
      "mesh": 0,
      "name": "Object_2"
    },
    {
      "mesh": 1,
      "name": "Object_3"
    },
    {
      "mesh": 2,
      "name": "Object_4"
    },
    {
      "mesh": 3,
      "name": "Object_5"
    }
  ],
  "samplers": [
    {
      "magFilter": 9729,
      "minFilter": 9987,
      "wrapS": 10497,
      "wrapT": 10497
    }
  ],
  "scene": 0,
  "scenes": [
    {
      "name": "Sketchfab_Scene",
      "nodes": [
        0
      ]
    }
  ],
  "textures": [
    {
      "sampler": 0,
      "source": 0
    }
  ]
}
